# xmcd
#
# Track frame offsets:
#	150
#	16205
#	31592
#	46492
#	62805
#	78192
#	90745
#	100917
#	114440
#	130170
#	146645
#	158142
#	170777
#	185772
#	201935
#	213685
#
# Disc length: 3000
#
# Revision: 1
# Processed by: cddbd v1.5.1PL0 Copyright (c) Steve Scherf et al.
# Submitted via: dBpowerAMP V4.0
# Normalized: r0:TDELIM( - )
#
DISCID=df0bb610
DTITLE=Various Artist - Today's Country Gold Vol 4
DYEAR=1991
DGENRE=Country
TTITLE0=Dan Seals - Good Times
TTITLE1=Rodney Crowell - If Looks Could Kill
TTITLE2=Willie Nelson - Nothing I Can Do About It Now
TTITLE3=Tanya Tucker - My Arms Stay Open All Night
TTITLE4=Highway 101 - Who's Lonely Now
TTITLE5=Lee Greenwood - Holdin a Good Hand
TTITLE6=George Jones - I'm A One Woman Man
TTITLE7=Waylon Jennings - Wrong
TTITLE8=Dwight Yoakam - I Got You
TTITLE9=Shenandoah - Next To You, Next To Me
TTITLE10=Ricky Van Shelton - Hole In My Pocket
TTITLE11=George Fox - Lime Ricky
TTITLE12=Exile - Keep It In The Middle Of The Road
TTITLE13=Ricky Scaggs - Lovin' Only Me
TTITLE14=Holly Dunn - Are You Ever Gonna Love Me
TTITLE15=Dolly Parton - Why'd You Come In Here Lookin Like That
EXTD=
EXTT0=
EXTT1=
EXTT2=
EXTT3=
EXTT4=
EXTT5=
EXTT6=
EXTT7=
EXTT8=
EXTT9=
EXTT10=
EXTT11=
EXTT12=
EXTT13=
EXTT14=
EXTT15=
PLAYORDER=
